<?xml version="1.0" encoding="utf-8"?>
<!-- Generator: Adobe Illustrator 18.1.0, SVG Export Plug-In . SVG Version: 6.00 Build 0)  -->
<svg version="1.1" id="Layer_1" xmlns="http://www.w3.org/2000/svg" xmlns:xlink="http://www.w3.org/1999/xlink" x="0px" y="0px"
	 width="80px" height="85px" viewBox="37 -19.017 80 85" enable-background="new 37 -19.017 80 85" xml:space="preserve">
<g>
	<rect x="41" y="-9.017" fill="#FFFFFF" width="64" height="60"/>
	<path fill="#585858" d="M103,54.983H43c-3.309,0-6-2.691-6-6v-56c0-3.309,2.691-6,6-6h60c3.309,0,6,2.691,6,6v56
		C109,52.292,106.309,54.983,103,54.983z M43-9.017c-1.103,0-2,0.897-2,2v56c0,1.104,0.897,2,2,2h60c1.104,0,2-0.896,2-2v-56
		c0-1.103-0.896-2-2-2H43z"/>
	<g>
		<g>
			<path fill="#585858" d="M82.019,40.171c-0.23-1.27-0.421-2.69-1.614-3.531c-2.721-1.921-6.207-3.544-9.281-4.96
				c-1.488-0.674-1.476-0.793-1.759-2.098c-0.194-0.843-1.343-0.434-1.174-1.848c0.304-2.51,2.594-3.937,3.405-6.126
				c0.354-0.948,0.701-2.101,0.49-3.107c-0.067-0.325-0.237-0.671-0.596-0.81c-0.719-0.27-0.224-1.308-0.146-1.983
				c0.175-1.385,0.709-3.089,0.594-4.775h-0.041c-0.283-2.36-2.227-4.144-3.535-6.207c-0.777-1.247-1.033-1.267-2.536-1.969
				c0.228-0.243,0.414-0.449,0.661-0.688c-1.48-0.472-4.078-1.404-5.639-0.98c-1.179,0.3-2.026,1.183-3.203,1.517
				c-0.965,0.299-2.118,0.641-2.972,1.172c-0.42,0.261-0.013,0.399,0.029,0.744c0.072,0.593-0.826,1.282-1.179,1.724
				c-0.827,1.062-1.831,2.434-2.286,3.68c-0.122,0.33-0.176,0.671-0.202,1.008h-0.042c-0.114,1.685,0.418,3.389,0.595,4.774
				c0.077,0.675,0.571,1.684-0.147,1.954c-0.359,0.139-0.529,0.498-0.595,0.824c-0.211,1.006,0.135,2.164,0.489,3.112
				c0.812,2.189,3.101,3.617,3.405,6.127c0.169,1.414-0.98,1.001-1.174,1.844c-0.283,1.304-0.271,1.413-1.759,2.088
				c-1.548,0.713-3.2,1.473-4.807,2.298v11.026h14.465h21.352C82.432,42.623,82.293,41.756,82.019,40.171z"/>
		</g>
		<path fill="#585858" d="M98.528,38.64c-0.136-0.75-0.249-1.589-0.954-2.086c-1.608-1.135-3.668-2.094-5.484-2.931
			c-0.879-0.398-0.872-0.469-1.039-1.24c-0.115-0.498-0.794-0.256-0.694-1.092c0.18-1.483,1.533-2.327,2.012-3.62
			c0.209-0.56,0.414-1.241,0.29-1.836c-0.04-0.192-0.14-0.396-0.352-0.479c-0.425-0.16-0.133-0.773-0.087-1.172
			c0.104-0.818,0.419-1.826,0.351-2.821h-0.024c-0.167-1.395-1.316-2.449-2.089-3.667c-0.459-0.737-0.611-0.749-1.499-1.164
			c0.135-0.144,0.245-0.265,0.391-0.407c-0.875-0.279-2.41-0.83-3.332-0.579c-0.696,0.177-1.197,0.699-1.893,0.896
			c-0.57,0.177-1.252,0.379-1.756,0.692c-0.248,0.154-0.008,0.236,0.017,0.439c0.043,0.35-0.488,0.757-0.697,1.019
			c-0.489,0.628-1.082,1.438-1.351,2.175c-0.072,0.195-0.104,0.396-0.12,0.595h-0.025c-0.068,0.996,0.247,2.003,0.352,2.821
			c0.045,0.399,0.337,0.995-0.087,1.155c-0.212,0.082-0.312,0.294-0.352,0.487c-0.125,0.595,0.08,1.279,0.289,1.839
			c0.48,1.294,1.832,2.138,2.012,3.621c0.1,0.836-0.579,0.592-0.694,1.09c-0.07,0.32-0.112,0.515-0.197,0.666
			c0.737,0.428,1.448,0.872,2.112,1.333c1.211,0.841,1.405,2.261,1.639,3.531c0.223,1.27,0.36,2.091,0.606,3.577h0.509H99
			C98.772,40.089,98.69,39.576,98.528,38.64z"/>
	</g>
</g>
</svg>
