<?xml version="1.0" encoding="utf-8"?>
<!-- Generator: Adobe Illustrator 15.1.0, SVG Export Plug-In  -->
<!DOCTYPE svg PUBLIC "-//W3C//DTD SVG 1.1//EN" "http://www.w3.org/Graphics/SVG/1.1/DTD/svg11.dtd" [
	<!ENTITY ns_flows "http://ns.adobe.com/Flows/1.0/">
]>
<svg version="1.1"
	 xmlns="http://www.w3.org/2000/svg" xmlns:xlink="http://www.w3.org/1999/xlink" xmlns:a="http://ns.adobe.com/AdobeSVGViewerExtensions/3.0/"
	 x="0px" y="0px" width="164px" height="183px" viewBox="0.5 0.5 164 183"
	 overflow="visible" enable-background="new 0.5 0.5 164 183" xml:space="preserve">
<defs>
</defs>
<rect x="0.5" y="0.5" fill="#FFFFFF" stroke="#FFFFFF" stroke-miterlimit="10" width="164" height="183"/>
<path fill="#585858" d="M69.5,164.5c0,2.762-2.239,5-5,5h-43c-2.761,0-5-2.238-5-5v-56c0-2.761,2.239-5,5-5h43c2.761,0,5,2.239,5,5
	V164.5z"/>
<rect x="38.5" y="110.5" fill="#FFFFFF" width="9" height="12"/>
<rect x="53.5" y="110.5" fill="#FFFFFF" width="9" height="12"/>
<rect x="23.5" y="110.5" fill="#FFFFFF" width="9" height="12"/>
<rect x="38.5" y="129.5" fill="#FFFFFF" width="9" height="12"/>
<rect x="53.5" y="129.5" fill="#FFFFFF" width="9" height="12"/>
<rect x="23.5" y="129.5" fill="#FFFFFF" width="9" height="12"/>
<rect x="53.5" y="150.5" fill="#FFFFFF" width="9" height="12"/>
<rect x="23.5" y="150.5" fill="#FFFFFF" width="9" height="12"/>
<path fill="#585858" d="M149.5,164.5c0,2.762-2.238,5-5,5h-57c-2.762,0-5-2.238-5-5v-125c0-2.761,2.238-5,5-5h57
	c2.762,0,5,2.239,5,5V164.5z"/>
<rect x="91.5" y="77.5" fill="#FFFFFF" width="11" height="12"/>
<rect x="110.5" y="77.5" fill="#FFFFFF" width="11" height="12"/>
<rect x="129.5" y="77.5" fill="#FFFFFF" width="11" height="12"/>
<rect x="91.5" y="95.5" fill="#FFFFFF" width="11" height="12"/>
<rect x="110.5" y="95.5" fill="#FFFFFF" width="11" height="12"/>
<rect x="129.5" y="95.5" fill="#FFFFFF" width="11" height="12"/>
<rect x="91.5" y="113.5" fill="#FFFFFF" width="11" height="12"/>
<rect x="110.5" y="113.5" fill="#FFFFFF" width="11" height="12"/>
<rect x="129.5" y="113.5" fill="#FFFFFF" width="11" height="12"/>
<rect x="91.5" y="131.5" fill="#FFFFFF" width="11" height="12"/>
<rect x="110.5" y="131.5" fill="#FFFFFF" width="11" height="12"/>
<rect x="129.5" y="131.5" fill="#FFFFFF" width="11" height="12"/>
<rect x="91.5" y="149.5" fill="#FFFFFF" width="11" height="12"/>
<rect x="129.5" y="149.5" fill="#FFFFFF" width="11" height="12"/>
<rect x="91.5" y="59.5" fill="#FFFFFF" width="11" height="12"/>
<rect x="110.5" y="59.5" fill="#FFFFFF" width="11" height="12"/>
<rect x="129.5" y="59.5" fill="#FFFFFF" width="11" height="12"/>
<rect x="91.5" y="42.5" fill="#FFFFFF" width="11" height="12"/>
<rect x="110.5" y="42.5" fill="#FFFFFF" width="11" height="12"/>
<rect x="129.5" y="42.5" fill="#FFFFFF" width="11" height="12"/>
</svg>
