<?xml version="1.0" encoding="utf-8"?>
<!-- Generator: Adobe Illustrator 15.1.0, SVG Export Plug-In  -->
<!DOCTYPE svg PUBLIC "-//W3C//DTD SVG 1.1//EN" "http://www.w3.org/Graphics/SVG/1.1/DTD/svg11.dtd" [
	<!ENTITY ns_flows "http://ns.adobe.com/Flows/1.0/">
]>
<svg version="1.1"
	 xmlns="http://www.w3.org/2000/svg" xmlns:xlink="http://www.w3.org/1999/xlink" xmlns:a="http://ns.adobe.com/AdobeSVGViewerExtensions/3.0/"
	 x="0px" y="0px" width="164px" height="183px" viewBox="0.5 0.5 164 183"
	 overflow="visible" enable-background="new 0.5 0.5 164 183" xml:space="preserve">
<defs>
</defs>
<rect x="0.5" y="0.5" fill="#FFFFFF" stroke="#FFFFFF" stroke-miterlimit="10" width="164" height="183"/>
<path fill="#585858" d="M145.069,154.064c-0.7-3.81-1.283-8.069-4.913-10.592c-8.284-5.762-18.896-10.633-28.254-14.879
	c-4.529-2.022-4.492-2.38-5.354-6.293c-0.59-2.53-4.088-1.301-3.574-5.543c0.927-7.53,7.896-11.812,10.365-18.379
	c1.078-2.845,2.134-6.302,1.493-9.32c-0.204-0.976-0.722-2.013-1.813-2.43c-2.188-0.81-0.683-3.924-0.446-5.948
	c0.534-4.154,2.157-9.268,1.808-14.324h-0.126c-0.862-7.08-6.779-12.432-10.762-18.62c-2.364-3.74-3.146-3.802-7.721-5.908
	c0.695-0.729,1.26-1.347,2.012-2.065c-4.505-1.415-12.414-4.212-17.166-2.941c-3.588,0.899-6.169,3.55-9.75,4.551
	c-2.938,0.896-6.449,1.922-9.048,3.515c-1.279,0.784-0.039,1.198,0.088,2.231c0.22,1.779-2.513,3.845-3.589,5.173
	c-2.517,3.186-5.573,7.303-6.958,11.041c-0.371,0.989-0.536,2.012-0.616,3.023h-0.127c-0.348,5.056,1.273,10.168,1.811,14.323
	c0.233,2.024,1.739,5.052-0.448,5.862c-1.093,0.417-1.609,1.495-1.812,2.471c-0.643,3.019,0.41,6.492,1.49,9.337
	c2.472,6.568,9.44,10.852,10.367,18.382c0.514,4.242-2.984,3.004-3.575,5.533c-0.863,3.912-0.825,4.24-5.354,6.263
	c-9.36,4.247-19.971,9.056-28.256,14.818c-3.626,2.522-4.218,6.908-4.908,10.718c-0.835,4.754-1.263,7.357-2.433,14.437h65h65
	C146.328,161.421,145.904,158.818,145.069,154.064z"/>
</svg>
